<svg height="2216" viewBox="-2.1 0 514.3 457.8" width="2500" xmlns="http://www.w3.org/2000/svg"><path d="m503.5 201.4-100.5-173.9c-8.7-15.1-30.1-27.5-47.6-27.5h-200.8c-17.4 0-38.9 12.4-47.6 27.5l-100.4 173.9c-8.7 15.1-8.7 39.8 0 54.9l100.4 174c8.7 15.1 30.1 27.5 47.6 27.5h200.9c17.4 0 38.8-12.4 47.6-27.5l100.4-174c8.7-15.1 8.7-39.8 0-54.9zm-270.2-105.2c0-11.4 9.3-20.7 20.7-20.7s20.7 9.3 20.7 20.7v123.7c0 11.4-9.3 20.7-20.7 20.7s-20.7-9.3-20.7-20.7zm20.7 264.1c-77.4 0-140.4-63-140.4-140.4.1-44.4 21.1-86.1 56.7-112.7 8.2-6.1 19.7-4.4 25.8 3.8s4.4 19.7-3.8 25.8c-45.9 34.1-55.5 99-21.4 144.9s99 55.5 144.9 21.4c26.3-19.5 41.8-50.4 41.8-83.2-.1-32.9-15.7-63.8-42.2-83.4-8.2-6-9.9-17.6-3.9-25.8s17.6-9.9 25.8-3.9c35.9 26.5 57 68.5 57.1 113.1 0 77.5-63 140.4-140.4 140.4z" fill="#6db33f"/></svg>